<svg height="512" viewBox="0 0 47 60" width="512" xmlns="http://www.w3.org/2000/svg"><g id="Page-1" fill="none" fill-rule="evenodd"><g id="005---Metronome" fill-rule="nonzero"><g id="Colour" transform="translate(1 1)"><path id="Shape" d="m39.74 54h-35.48c-1.24914135-.0013212-2.42594943-.5861173-3.18138632-1.5809394s-1.00275988-2.2854402-.66861368-3.4890606l3.31-11.93h36.56l3.31 11.93c.3341462 1.2036204.0868232 2.4942385-.6686137 3.4890606s-1.9322449 1.5796182-3.1813863 1.5809394z" fill="#e8edfc"/><path id="Shape" d="m43.59 48.93-3.31-11.93h-3l3.31 11.93c.3341462 1.2036204.0868232 2.4942385-.6686137 3.4890606s-1.9322449 1.5796182-3.1813863 1.5809394h3c1.2491414-.0013212 2.4259494-.5861173 3.1813863-1.5809394s1.0027599-2.2854402.6686137-3.4890606z" fill="#cad9fc"/><path id="Shape" d="m40.28 37h-36.56l9.16-33h18.24z" fill="#e8edfc"/><path id="Shape" d="m31.12 4h-3l9.16 33h3z" fill="#cad9fc"/><path id="Shape" d="m31.12 4h-18.24l.71-2.54c.2425091-.86483149 1.0318127-1.46192126 1.93-1.46h12.96c.8981873-.00192126 1.6874909.59516851 1.93 1.46z" fill="#a4c2f7"/><path id="Shape" d="m30.41 1.46c-.2425091-.86483149-1.0318127-1.46192126-1.93-1.46l-3-.00000462c.8981873-.00191664 1.6874909.59517313 1.93 1.46000462l.71 2.54h3z" fill="#7facfa"/><path id="Shape" d="m12 54v2c0 1.1045695-.8954305 2-2 2h-4c-1.1045695 0-2-.8954305-2-2v-2" fill="#a4c2f7"/><path id="Shape" d="m9 54v2c0 1.1045695-.8954305 2-2 2h3c1.1045695 0 2-.8954305 2-2v-2z" fill="#cad9fc"/><path id="Shape" d="m40 54v2c0 1.1045695-.8954305 2-2 2h-4c-1.1045695 0-2-.8954305-2-2v-2" fill="#e8edfc"/><path id="Shape" d="m9 54v2c0 1.1045695-.8954305 2-2 2h3c1.1045695 0 2-.8954305 2-2v-2z" fill="#7facfa"/><path id="Shape" d="m40 54v2c0 1.1045695-.8954305 2-2 2h-4c-1.1045695 0-2-.8954305-2-2v-2" fill="#a4c2f7"/><path id="Shape" d="m37 54v2c0 1.1045695-.8954305 2-2 2h3c1.1045695 0 2-.8954305 2-2v-2z" fill="#7facfa"/><rect id="Rectangle-path" fill="#a4c2f7" height="9" rx="3" width="28" x="8" y="41"/><path id="Shape" d="m33 41h-3c1.6568542 0 3 1.3431458 3 3v3c0 1.6568542-1.3431458 3-3 3h3c1.6568542 0 3-1.3431458 3-3v-3c0-1.6568542-1.3431458-3-3-3z" fill="#7facfa"/><circle id="Oval" cx="41" cy="7" fill="#e8edfc" r="3"/></g><g id="Whites_copy" fill="#fff" transform="translate(1 1)"><path id="Shape" d="m4.26 54h-.26v2c0 1.1045695.8954305 2 2 2h3c-1.1045695 0-2-.8954305-2-2v-2h.26c-1.24914135-.0013212-2.42594943-.5861173-3.18138632-1.5809394s-1.00275988-2.2854402-.66861368-3.4890606c1.223-4.408 11.87-42.785 13.18-47.47.2425091-.86483149 1.0318127-1.46192126 1.93-1.46000462l-3 .00000462c-.8981873-.00192126-1.6874909.59516851-1.93 1.46-1.31 4.685-11.957 43.062-13.18 47.47-.3341462 1.2036204-.08682321 2.4942385.66861368 3.4890606s1.93224497 1.5796182 3.18138632 1.5809394z"/></g><g id="Outline"><path id="Rectangle-path" d="m7.736 11.751h8v2h-8z" fill="#fff" transform="matrix(.268 -.964 .964 .268 -3.691 20.645)"/><g fill="#428dff"><path id="Shape" d="m11.468 13.714c.5323769.1456296 1.0820741-.1676024 1.2281793-.699849s-.1666355-1.0822234-.6987513-1.2288041c-.5321159-.1465807-1.0823719.1656684-1.229428.6976531-.0707872.2560772-.0367613.5297974.0945682.7607496.1313295.2309523.3491658.4001499.6054318.4702504z"/><path id="Shape" d="m1.282 54.026c.67566644.8926896 1.63367977 1.5303077 2.718 1.809v1.165c0 1.6568542 1.34314575 3 3 3h4c1.6568542 0 3-1.3431458 3-3v-1h18v1c0 1.6568542 1.3431458 3 3 3h4c1.6568542 0 3-1.3431458 3-3v-1.164c1.2959365-.3381024 2.4020545-1.1819872 3.0705047-2.3425642.6684502-1.1605769.8433449-2.5408126.4854953-3.8314358l-8.766-31.556 4-6.313c.3900733.1316671.7983408.2015112 1.21.207 1.5933629.0052165 3.0368312-.9387387 3.6708375-2.40054183.6340063-1.46180317.3367914-3.16071918-.7558375-4.32045817l1.171-1.855c.2526502-.46264916.1027782-1.04197383-.3425357-1.32405877-.4453139-.28208495-1.0331292-.17004977-1.3434643.25605877l-1.177 1.855c-1.7315226-.56631047-3.6264813.11564494-4.6000534 1.65546155-.9735722 1.53981661-.7770534 3.54413998.4770534 4.86553845l-3.027 4.777-3.703-13.309c-.3619113-1.29781171-1.5426753-2.19666316-2.89-2.2h-12.96c-1.3473247.00333684-2.5280887.90218829-2.89 2.2l-1.787 6.429c-.1480123.53212635.1633737 1.08348766.6955 1.23149997.5321264.14801233 1.0834877-.16337363 1.2315-.69549997l.879-3.165h7.351v2h-2c-.5522847 0-1 .44771525-1 1s.4477153 1 1 1h2v3h-4c-.5522847 0-1 .4477153-1 1s.4477153 1 1 1h4v3h-2c-.5522847 0-1 .4477153-1 1s.4477153 1 1 1h2v3h-4c-.5522847 0-1 .4477153-1 1s.4477153 1 1 1h4v3h-2c-.5522847 0-1 .4477153-1 1s.4477153 1 1 1h2v3h-4c-.5522847 0-1 .4477153-1 1s.4477153 1 1 1h4v2h-15.962l5.591-20.127c.0957472-.3442254.0005792-.7133833-.2496552-.9684155-.2502343-.2550322-.6175185-.3571932-.9635-.268s-.61809763.3561901-.7138448.7004155l-9.257 33.325c-.42400045 1.5052991-.11384767 3.122392.837 4.364zm40.718-48.026c1.1045695 0 2 .8954305 2 2s-.8954305 2-2 2-2-.8954305-2-2 .8954305-2 2-2zm-30 51c0 .5522847-.4477153 1-1 1h-4c-.55228475 0-1-.4477153-1-1v-1h6zm27 1h-4c-.5522847 0-1-.4477153-1-1v-1h6v1c0 .5522847-.4477153 1-1 1zm-23.443-55.268c.1203092-.43249337.5140849-.73181193.963-.732h12.96c.4489151.00018807.8426908.29950663.963.732l.357 1.268h-15.595zm15.794 3.268 3.274 11.786-10.625 16.768v-28.554zm4 14.384 4.611 16.616h-15.144zm5.167 18.616 3.11 11.2c.2498383.9029676.0634835 1.8708088-.5037882 2.6164444s-1.4503182 1.1834412-2.3872118 1.1835556h-35.474c-.93689358-.0001144-1.81994008-.43792-2.38721178-1.1835556-.56727169-.7456356-.75362652-1.7134768-.50378822-2.6164444l3.11-11.2z"/><path id="Shape" d="m12 52h22c2.209139 0 4-1.790861 4-4v-3c0-2.209139-1.790861-4-4-4h-22c-2.209139 0-4 1.790861-4 4v3c0 2.209139 1.790861 4 4 4zm-2-7c0-1.1045695.8954305-2 2-2h22c1.1045695 0 2 .8954305 2 2v3c0 1.1045695-.8954305 2-2 2h-22c-1.1045695 0-2-.8954305-2-2z"/><circle id="Oval" cx="27" cy="9" r="1"/><circle id="Oval" cx="27" cy="14" r="1"/><circle id="Oval" cx="27" cy="19" r="1"/><circle id="Oval" cx="27" cy="24" r="1"/><circle id="Oval" cx="13" cy="47" r="1"/><circle id="Oval" cx="17" cy="47" r="1"/><circle id="Oval" cx="21" cy="47" r="1"/><circle id="Oval" cx="25" cy="47" r="1"/><circle id="Oval" cx="29" cy="47" r="1"/><circle id="Oval" cx="33" cy="47" r="1"/></g></g></g></g></svg>