<?xml version="1.0"?>
<svg xmlns="http://www.w3.org/2000/svg" xmlns:xlink="http://www.w3.org/1999/xlink" xmlns:svgjs="http://svgjs.com/svgjs" version="1.1" width="512" height="512" x="0" y="0" viewBox="0 0 512 512" style="enable-background:new 0 0 512 512" xml:space="preserve" class=""><g>
<path xmlns="http://www.w3.org/2000/svg" style="" d="M256,0C115.3,0,0,115.3,0,256s115.3,256,256,256s256-115.3,256-256S396.7,0,256,0z" fill="#d73232" data-original="#32d736" class=""/>
<path xmlns="http://www.w3.org/2000/svg" style="" d="M512,256c0,140.7-115.3,256-256,256V0C396.7,0,512,115.3,512,256z" fill="#b52525" data-original="#0ca656" class=""/>
<g xmlns="http://www.w3.org/2000/svg">
	<path style="" d="M436,256c0,99.3-80.7,180-180,180S76,355.3,76,256c0-39.3,12.599-76.5,36-107.999   c5.7-7.5,14.399-12.001,24-12.001c6.599,0,12.9,2.1,17.999,6c13.2,9.901,15.901,28.799,6,41.999C144.401,205,136,229.9,136,256   c0,66.301,53.699,120,120,120s120-53.699,120-120c0-26.1-8.401-51-24-72.001c-9.901-13.2-7.2-31.8,6-41.999   c5.099-3.9,11.4-6,17.999-6c9.6,0,18.3,4.501,24,12.001C423.401,179.5,436,216.7,436,256z" fill="#ffffff" data-original="#cae8f9" class=""/>
	<path style="" d="M286,106v150c0,16.5-13.5,30-30,30s-30-13.5-30-30V106c0-16.5,13.5-30,30-30S286,89.5,286,106z" fill="#ffffff" data-original="#cae8f9" class=""/>
</g>
<g xmlns="http://www.w3.org/2000/svg">
	<path style="" d="M256,286V76c16.5,0,30,13.5,30,30v150C286,272.5,272.5,286,256,286z" fill="#ffebeb" data-original="#b7e0f6" class=""/>
	<path style="" d="M436,256c0,99.3-80.7,180-180,180v-60c66.301,0,120-53.699,120-120c0-26.1-8.401-51-24-72.001   c-9.901-13.2-7.2-31.8,6-41.999c5.099-3.9,11.4-6,17.999-6c9.6,0,18.3,4.501,24,12.001C423.401,179.5,436,216.7,436,256z" fill="#ffebeb" data-original="#b7e0f6" class=""/>
</g>
<g xmlns="http://www.w3.org/2000/svg">
</g>
<g xmlns="http://www.w3.org/2000/svg">
</g>
<g xmlns="http://www.w3.org/2000/svg">
</g>
<g xmlns="http://www.w3.org/2000/svg">
</g>
<g xmlns="http://www.w3.org/2000/svg">
</g>
<g xmlns="http://www.w3.org/2000/svg">
</g>
<g xmlns="http://www.w3.org/2000/svg">
</g>
<g xmlns="http://www.w3.org/2000/svg">
</g>
<g xmlns="http://www.w3.org/2000/svg">
</g>
<g xmlns="http://www.w3.org/2000/svg">
</g>
<g xmlns="http://www.w3.org/2000/svg">
</g>
<g xmlns="http://www.w3.org/2000/svg">
</g>
<g xmlns="http://www.w3.org/2000/svg">
</g>
<g xmlns="http://www.w3.org/2000/svg">
</g>
<g xmlns="http://www.w3.org/2000/svg">
</g>
</g></svg>
